<svg width="20" height="20" viewBox="0 0 20 20" fill="none" xmlns="http://www.w3.org/2000/svg">
<path d="M17.0386 0.758006C16.9573 0.676678 16.8467 0.631481 16.7317 0.632699C16.6171 0.633511 16.5074 0.678302 16.425 0.758006L10.2357 6.94702L10.2185 6.96448L10.2098 6.97314C10.2013 6.98613 10.1883 6.99912 10.1796 7.01197C10.1796 7.0163 10.1753 7.0163 10.1753 7.02063C10.1666 7.03349 10.1622 7.04229 10.1537 7.05514C10.1492 7.05947 10.1492 7.06394 10.145 7.06813C10.1407 7.08112 10.1365 7.08978 10.132 7.10277C10.132 7.1071 10.1277 7.1071 10.1277 7.1113L9.02548 10.435C8.97271 10.5897 9.0129 10.7612 9.12941 10.8759C9.21101 10.9564 9.32129 11.0015 9.43605 11.0012C9.483 11.0003 9.52969 10.9931 9.57448 10.9796L12.8896 9.87319C12.8938 9.87319 12.8938 9.87319 12.8981 9.86886C12.9118 9.86493 12.925 9.85912 12.9369 9.85167C12.9403 9.85113 12.9434 9.84964 12.9457 9.84721C12.9586 9.83868 12.9759 9.83002 12.9889 9.82123C13.0017 9.81257 13.0147 9.79957 13.0277 9.79105C13.0322 9.78685 13.0364 9.78685 13.0364 9.78239C13.0407 9.77806 13.0494 9.77373 13.0538 9.7652L19.2471 3.57172C19.3281 3.4908 19.3736 3.38119 19.3736 3.26698C19.3736 3.15264 19.3281 3.04289 19.2471 2.96224L17.0386 0.758006ZM10.7285 8.05353L11.9517 9.2767L10.119 9.88604L10.7285 8.05353ZM12.7513 8.85314L11.152 7.25406L16.7317 1.67426L18.3308 3.27334L12.7513 8.85314Z" fill="#433466"/>
<path d="M16.0186 8.71053C15.7802 8.71121 15.5871 8.90431 15.5864 9.14275V17.2207C15.5843 17.9359 15.0052 18.5151 14.2897 18.5174H2.78464C2.06947 18.5151 1.49002 17.9359 1.48799 17.2207V5.71535C1.49002 5.00018 2.06947 4.42087 2.78464 4.4187H10.8623C11.1012 4.4187 11.2945 4.2252 11.2945 3.98649C11.2945 3.74778 11.1012 3.55428 10.8623 3.55428H2.78464C1.59124 3.55482 0.624107 4.52209 0.623566 5.71535V17.2207C0.624107 18.414 1.59124 19.3812 2.78464 19.3816H14.2897C15.4831 19.3812 16.4504 18.414 16.4508 17.2207V9.14275C16.4501 8.90431 16.257 8.71121 16.0186 8.71053Z" fill="#433466"/>
</svg>
