<svg width="20" height="20" viewBox="0 0 20 20" fill="none" xmlns="http://www.w3.org/2000/svg">
<g clip-path="url(#clip0)">
<path d="M11.8317 7.8244C12.1532 7.8244 12.4137 8.08493 12.4137 8.40634C12.4137 8.72765 12.1532 8.98808 11.8317 8.98808C11.5104 8.98808 11.2498 8.7277 11.2498 8.40634C11.2498 8.08488 11.5104 7.8244 11.8317 7.8244Z" fill="#FFAF4F"/>
<path d="M17.9272 16.4105C17.5224 15.6489 17.0637 14.7854 17.0637 13.4304C17.0637 11.1634 18.3211 10.3659 18.3724 10.3346C18.5584 10.2245 18.6195 9.98447 18.5094 9.79845C18.3991 9.61208 18.1588 9.55101 17.9731 9.66108C17.904 9.70215 16.2809 10.6946 16.2809 13.4304C16.2809 14.9806 16.8104 15.9771 17.2357 16.7779C17.5407 17.3512 17.7812 17.8045 17.7812 18.3225C17.7812 18.6938 17.7004 18.9618 17.5478 19.0986C17.3924 19.2377 17.1893 19.2171 17.1855 19.2171C17.1669 19.2143 17.1478 19.213 17.1289 19.213H15.6883C15.856 18.9506 15.9548 18.6402 15.9548 18.3062V0.661978C15.9548 0.486295 15.8376 0.332114 15.6682 0.284859C15.4992 0.237218 15.3191 0.309163 15.2281 0.459527L13.3166 3.6236C12.7301 3.61244 11.0066 3.59901 5.84728 3.59901C4.75178 3.59901 4.20956 3.59978 3.93565 3.60172L2.17471 0.211078C2.09141 0.050809 1.90858 -0.0318624 1.73459 0.0111886C1.55915 0.053998 1.43579 0.211078 1.43579 0.391351V18.3057C1.43579 19.2372 2.19346 19.9953 3.12526 19.9953H9.10592H14.2655H17.1075C17.1332 19.9976 17.1696 19.9999 17.215 19.9999C17.4064 19.9999 17.7506 19.9573 18.0538 19.6956C18.3922 19.4031 18.5639 18.9412 18.5639 18.322C18.564 17.6093 18.2549 17.0269 17.9272 16.4105ZM5.55849 9.77066C4.80609 9.77066 4.1939 9.15862 4.1939 8.40622C4.1939 7.65368 4.80633 7.04154 5.55849 7.04154C6.31079 7.04154 6.92307 7.65368 6.92307 8.40622C6.92307 9.15862 6.31103 9.77066 5.55849 9.77066ZM9.38007 11.3431H9.09103L9.05943 11.8868C9.04745 12.0947 8.87496 12.2555 8.66908 12.2555C8.66154 12.2555 8.65381 12.2552 8.64613 12.255C8.43044 12.2422 8.26548 12.057 8.27833 11.8417L8.30728 11.3433H8.01032C7.79434 11.3433 7.6189 11.1682 7.6189 10.9519C7.6189 10.7356 7.79434 10.5605 8.01032 10.5605H9.38012C9.59619 10.5605 9.77149 10.7356 9.77149 10.9519C9.77144 11.1682 9.59615 11.3431 9.38007 11.3431ZM11.8317 9.77066C11.0793 9.77066 10.467 9.15862 10.467 8.40622C10.467 7.65368 11.0795 7.04154 11.8317 7.04154C12.5843 7.04154 13.1969 7.65368 13.1969 8.40622C13.1968 9.15862 12.5843 9.77066 11.8317 9.77066Z" fill="#FFAF4F"/>
<path d="M5.55853 8.98802C5.87987 8.98802 6.14037 8.72752 6.14037 8.40618C6.14037 8.08484 5.87987 7.82434 5.55853 7.82434C5.23718 7.82434 4.97668 8.08484 4.97668 8.40618C4.97668 8.72752 5.23718 8.98802 5.55853 8.98802Z" fill="#FFAF4F"/>
</g>
<defs>
<clipPath id="clip0">
<rect width="20" height="20" fill="white"/>
</clipPath>
</defs>
</svg>
