<svg width="58" height="48" viewBox="0 0 58 48" fill="none" xmlns="http://www.w3.org/2000/svg">
<path d="M52 11V0H51.0172C50.148 -1.30165e-07 49.3024 0.283153 48.6084 0.806605C47.9145 1.33006 47.4099 2.06532 47.1711 2.90112L46 7V11H52Z" fill="#FFB401"/>
<path d="M40 38L34 48H29V36H40V38Z" fill="#FFD873"/>
<path d="M58 16C57.9999 17.3261 57.4731 18.5978 56.5355 19.5355C55.5978 20.4731 54.3261 20.9999 53 21H49C49.0001 23.6265 48.4828 26.2272 47.4778 28.6538C46.4727 31.0803 44.9995 33.2852 43.1423 35.1423C41.2852 36.9995 39.0803 38.4727 36.6538 39.4778C34.2272 40.4828 31.6265 41.0001 29 41H7.5L5 48H0V36C3.31516e-05 31.4913 1.79111 27.1673 4.97922 23.9792C8.16733 20.7911 12.4913 19 17 19H30L37.9163 2.28751C38.2405 1.60313 38.7523 1.02484 39.3923 0.619902C40.0322 0.214959 40.774 -6.84515e-06 41.5312 1.63481e-10H43V7H46.8775C46.9187 7 46.96 7 47 7.0025C48.1563 7.02882 49.272 7.43428 50.1753 8.15654C51.0787 8.8788 51.7198 9.87784 52 11H53C54.3259 11.0005 55.5974 11.5274 56.535 12.465C57.4726 13.4026 57.9995 14.6741 58 16Z" fill="#FFAF4F"/>
<path d="M58 16C57.9999 17.3261 57.4731 18.5978 56.5355 19.5355C55.5978 20.4731 54.3261 20.9999 53 21H49C49.0001 23.6265 48.4828 26.2272 47.4778 28.6538C46.4727 31.0803 44.9995 33.2852 43.1423 35.1423C41.2852 36.9995 39.0803 38.4727 36.6538 39.4778C34.2272 40.4828 31.6265 41.0001 29 41H9L5 48H0V42C1.24197 42 2.46688 41.7109 3.57772 41.1554C4.68857 40.6 5.65484 39.7936 6.4 38.8L10 34H38V20.5088C37.9978 19.9179 38.1121 19.3325 38.3365 18.7859C38.5609 18.2393 38.8909 17.7424 39.3077 17.3236C39.7244 16.9048 40.2197 16.5723 40.7651 16.3452C41.3105 16.118 41.8954 16.0007 42.4863 16C43.6833 15.9999 44.8313 15.5243 45.6778 14.6778C46.5243 13.8314 46.9999 12.6833 47 11.4863V7.0025C48.1563 7.02882 49.272 7.43429 50.1753 8.15654C51.0787 8.8788 51.7198 9.87784 52 11H53C54.3259 11.0005 55.5974 11.5274 56.535 12.465C57.4726 13.4026 57.9995 14.6741 58 16Z" fill="#FFE28F"/>
<path d="M27 25V27C27 28.4928 27.4276 29.9543 28.2321 31.2117C29.0366 32.4691 30.1844 33.4697 31.5398 34.0953L40 38V41L44 46H47V37.2648C47 35.9237 46.7159 34.5977 46.1665 33.3744C45.617 32.151 44.8147 31.0578 43.8122 30.1669L38 25.0014L27 25Z" fill="#FFAF4F"/>
<path d="M43 12C43.5523 12 44 11.5523 44 11C44 10.4477 43.5523 10 43 10C42.4477 10 42 10.4477 42 11C42 11.5523 42.4477 12 43 12Z" fill="#B1712C"/>
<path d="M52 17C51.9991 17.7954 51.6827 18.5579 51.1203 19.1203C50.5579 19.6827 49.7954 19.9991 49 20H46V22H49C50.3256 21.9985 51.5965 21.4712 52.5339 20.5339C53.4712 19.5965 53.9985 18.3256 54 17H52Z" fill="#FFD873"/>
<path d="M12 41L16 48H21V41H12Z" fill="#FFD873"/>
<path d="M40 40H41.3945C42.5036 40 43.5955 39.7262 44.5734 39.2028C45.5512 38.6795 46.3848 37.9228 47 37V46H44L40 41V40Z" fill="#FFE28F"/>
<path d="M53 18C52.8143 18 52.6323 17.9483 52.4743 17.8507C52.3163 17.753 52.1887 17.6134 52.1056 17.4473L51.1056 15.4473C51.0294 15.2948 50.9934 15.1254 51.001 14.9551C51.0087 14.7848 51.0597 14.6193 51.1493 14.4743C51.2389 14.3293 51.3641 14.2096 51.513 14.1266C51.6619 14.0436 51.8295 14 52 14H54C54.1705 14 54.3381 14.0436 54.487 14.1266C54.6359 14.2096 54.7611 14.3293 54.8507 14.4743C54.9403 14.6193 54.9914 14.7848 54.999 14.9551C55.0067 15.1254 54.9707 15.2948 54.8944 15.4473L53.8944 17.4473C53.8114 17.6134 53.6837 17.753 53.5257 17.8507C53.3678 17.9483 53.1857 18 53 18Z" fill="#B1712C"/>
</svg>
