<svg width="16" height="16" viewBox="0 0 16 16" fill="none" xmlns="http://www.w3.org/2000/svg">
<path d="M11.3356 0.743687C10.5896 0.743687 9.87659 0.914705 9.21643 1.25202C8.76704 1.4816 8.35421 1.78662 8 2.14852C7.64576 1.78662 7.23296 1.4816 6.78357 1.25202C6.12338 0.914705 5.41038 0.743687 4.66435 0.743687C2.09244 0.743687 0 2.83612 0 5.40807C0 7.22972 0.962078 9.16447 2.85948 11.1586C4.44371 12.8237 6.38331 14.2116 7.73143 15.0828L8 15.2563L8.26857 15.0828C9.61669 14.2116 11.5563 12.8237 13.1406 11.1586C15.038 9.16447 16 7.22972 16 5.40807C16 2.83612 13.9076 0.743687 11.3356 0.743687ZM12.4236 10.4764C11.0077 11.9644 9.28307 13.2295 8 14.0761C6.71693 13.2294 4.9923 11.9644 3.57648 10.4764C1.85999 8.67246 0.989691 6.96723 0.989691 5.40807C0.989691 3.38184 2.63815 1.73338 4.66438 1.73338C5.83093 1.73338 6.90253 2.26923 7.60435 3.2035L8 3.73018L8.39565 3.2035C9.09747 2.26923 10.1691 1.73338 11.3356 1.73338C13.3618 1.73338 15.0103 3.38184 15.0103 5.40807C15.0103 6.96723 14.14 8.67246 12.4236 10.4764Z" fill="#FFAF4F"/>
</svg>
