<svg width="20" height="20" viewBox="0 0 20 20" fill="none" xmlns="http://www.w3.org/2000/svg">
<path d="M14.1695 0.929611C13.237 0.929611 12.3457 1.14338 11.5205 1.56503C10.9588 1.852 10.4428 2.23328 10 2.68565C9.5572 2.23328 9.0412 1.852 8.47946 1.56503C7.65423 1.14338 6.76297 0.929611 5.83043 0.929611C2.61555 0.929611 0 3.54516 0 6.76009C0 9.03716 1.2026 11.4556 3.57435 13.9483C5.55464 16.0296 7.97913 17.7645 9.66429 18.8534L10 19.0704L10.3357 18.8534C12.0209 17.7645 14.4454 16.0296 16.4256 13.9483C18.7974 11.4556 20 9.03716 20 6.76009C20 3.54516 17.3845 0.929611 14.1695 0.929611Z" fill="#EB5757"/>
</svg>
