<?xml version="1.0" standalone="no"?>
<!DOCTYPE svg PUBLIC "-//W3C//DTD SVG 20010904//EN"
 "http://www.w3.org/TR/2001/REC-SVG-20010904/DTD/svg10.dtd">
<svg version="1.0" xmlns="http://www.w3.org/2000/svg"
 width="700.000000pt" height="700.000000pt" viewBox="0 0 700.000000 700.000000"
 preserveAspectRatio="xMidYMid meet">
<g transform="translate(0.000000,700.000000) scale(0.100000,-0.100000)"
fill="#000000" stroke="none">
<path d="M570 6978 c-19 -13 -42 -38 -51 -55 -14 -29 -16 -325 -16 -3210 0
-2566 3 -3190 13 -3242 45 -221 233 -410 454 -455 97 -20 5099 -20 5175 0 106
28 205 103 263 199 111 186 117 475 15 734 -15 36 -90 192 -168 346 -164 325
-216 464 -259 700 -27 143 -27 472 0 608 2 12 8 45 13 72 53 274 215 556 396
690 52 38 85 74 86 94 0 9 2 24 4 34 17 87 -99 171 -185 134 -79 -35 -239
-190 -329 -322 -90 -132 -169 -303 -211 -457 -22 -82 -24 -90 -41 -183 -5 -33
-13 -71 -16 -85 -10 -46 -12 -454 -2 -519 5 -36 11 -81 14 -100 10 -78 31
-165 67 -286 50 -165 99 -277 270 -605 125 -241 161 -352 160 -485 -1 -44 -4
-91 -7 -105 -3 -14 -8 -38 -11 -54 -7 -43 -54 -107 -94 -130 -32 -19 -52 -20
-322 -21 -158 0 -288 4 -288 8 0 4 11 29 24 56 14 26 32 76 42 112 16 60 17
252 18 3204 0 2947 -1 3142 -17 3175 -34 70 -133 96 -195 51 -18 -12 -64 -76
-107 -149 -42 -70 -154 -255 -249 -412 -95 -157 -178 -294 -184 -305 -7 -11
-48 -78 -91 -150 l-80 -129 -1638 3 c-901 1 -1641 5 -1646 8 -4 2 -18 26 -31
51 -23 48 -132 258 -237 460 -99 189 -172 329 -264 507 -48 94 -95 178 -104
189 -42 48 -119 59 -171 24z m1500 -2460 c111 -29 224 -115 287 -220 90 -149
84 -354 -14 -503 -165 -249 -518 -285 -731 -75 -196 192 -188 508 16 691 121
109 284 148 442 107z m2185 2 c177 -40 323 -197 355 -383 55 -315 -217 -594
-536 -549 -195 27 -359 180 -401 372 -2 8 -5 44 -7 80 -12 244 175 461 424
493 38 5 112 -1 165 -13z m-908 -1233 c93 -49 94 -185 3 -236 -28 -15 -55 -21
-104 -21 l-66 0 -1 -47 c-4 -153 -13 -193 -53 -232 -64 -62 -160 -49 -208 27
-18 29 -19 45 -16 142 l5 110 -64 0 c-81 0 -124 18 -152 64 -47 75 -16 167 67
201 15 7 128 10 291 10 229 -1 270 -4 298 -18z"/>
<path d="M1875 4247 c-50 -20 -80 -45 -102 -84 -78 -140 15 -306 172 -306 116
-1 206 94 201 211 -7 136 -145 228 -271 179z"/>
<path d="M4070 4249 c-137 -55 -175 -232 -71 -333 116 -114 304 -57 339 101
28 123 -71 243 -198 242 -25 0 -56 -5 -70 -10z"/>
</g>
</svg>
